<svg id="b663c2ab-d892-4921-93c2-fcec566ea0c1" data-name="Layer 1" xmlns="http://www.w3.org/2000/svg" viewBox="0 0 842 248">
  <defs>
    <style>
      .a4844292-8566-4df7-a11d-7e0777128210 {
        fill: #3cc;
      }

      .bdfe6fa5-d7a6-415a-beb0-62bd4d020ba6 {
        fill: #33c;
      }

      .a7c23aaa-1253-4520-943b-7d65e1b98466 {
        fill: #fff;
      }
    </style>
  </defs>
  <title>Logo-Open_Org-Ambassador-A-Reverse-RGB</title>
  <g>
    <path class="a4844292-8566-4df7-a11d-7e0777128210" d="M54.154,104.315a46.961,46.961,0,1,1,46.961-46.961A47.012,47.012,0,0,1,54.154,104.315Zm0-71.922A24.962,24.962,0,1,0,79.117,57.354,24.987,24.987,0,0,0,54.154,32.393Z"/>
    <path class="a4844292-8566-4df7-a11d-7e0777128210" d="M107.111,163.023a53.8,53.8,0,0,1,53.743-53.743V88.44a74.583,74.583,0,0,0-74.583,74.583Z"/>
    <path class="bdfe6fa5-d7a6-415a-beb0-62bd4d020ba6" d="M195.631,97.145V18.273H110.425l.318,21.886h63V176.943H36.961v-62.3H15.074v84.181H95.529a74.52,74.52,0,1,0,100.1-101.684Z"/>
    <g>
      <path class="a7c23aaa-1253-4520-943b-7d65e1b98466" d="M301.8,102.307c-21.254,0-37.99-16.326-37.99-37.066s16.736-37.066,37.99-37.066c21.357,0,38.093,16.325,38.093,37.066S323.157,102.307,301.8,102.307Zm0-60.476c-12.835,0-22.692,10.062-22.692,23.41,0,13.245,9.857,23.41,22.692,23.41,12.937,0,22.794-10.165,22.794-23.41C324.594,51.893,314.737,41.831,301.8,41.831Z"/>
      <path class="a7c23aaa-1253-4520-943b-7d65e1b98466" d="M349.135,47.683H363V52.1a24.252,24.252,0,0,1,15.2-5.135,27.467,27.467,0,0,1-.411,54.932,26.588,26.588,0,0,1-14.58-4.209v24.95H349.135ZM363.2,64.009V85.058a18.018,18.018,0,0,0,12.732,4.928,15.5,15.5,0,1,0,0-31.008A17.248,17.248,0,0,0,363.2,64.009Z"/>
      <path class="a7c23aaa-1253-4520-943b-7d65e1b98466" d="M440.724,102.205c-16.223,0-28.75-12.116-28.75-27.723a27.307,27.307,0,0,1,27.518-27.723c15.2,0,26.49,12.322,26.49,28.75v3.7H426.144A15.412,15.412,0,0,0,441.34,90.4a16.84,16.84,0,0,0,11.807-4.312l9.242,8.42A32.071,32.071,0,0,1,440.724,102.205ZM426.041,69.143h26.183c-1.746-6.366-6.88-10.781-13.04-10.781C432.715,58.362,427.787,62.571,426.041,69.143Z"/>
      <path class="a7c23aaa-1253-4520-943b-7d65e1b98466" d="M474.609,47.683h14.067v4.21a22.964,22.964,0,0,1,14.991-5.236c12.424,0,21.151,8.727,21.151,21.254v33.267H510.751V69.964c0-6.776-4.313-11.192-11.089-11.192-4.723,0-8.522,1.849-10.986,5.339v37.067H474.609Z"/>
      <path class="a7c23aaa-1253-4520-943b-7d65e1b98466" d="M592.276,102.307c-21.254,0-37.99-16.326-37.99-37.066s16.736-37.066,37.99-37.066c21.358,0,38.094,16.325,38.094,37.066S613.634,102.307,592.276,102.307Zm0-60.476c-12.834,0-22.691,10.062-22.691,23.41,0,13.245,9.857,23.41,22.691,23.41,12.938,0,22.8-10.165,22.8-23.41C615.071,51.893,605.214,41.831,592.276,41.831Z"/>
      <path class="a7c23aaa-1253-4520-943b-7d65e1b98466" d="M639.612,47.683h14.067v5.853a17.018,17.018,0,0,1,14.272-7.085c2.772.1,4.415.411,5.853,1.232V60a17.98,17.98,0,0,0-7.188-1.437,14.158,14.158,0,0,0-12.937,8.009v34.6H639.612Z"/>
      <path class="a7c23aaa-1253-4520-943b-7d65e1b98466" d="M676.372,74.071A27.129,27.129,0,0,1,703.89,46.862a26.08,26.08,0,0,1,14.476,4.312V47.683h13.862v53.5c0,14.169-9.343,22.075-26.491,22.075-8.214,0-16.017-1.643-22.28-4.826l4.928-10.986a38.1,38.1,0,0,0,17.045,4.312c8.419,0,12.731-3.7,12.731-10.678V96.66a24.215,24.215,0,0,1-14.682,4.826A27.084,27.084,0,0,1,676.372,74.071Zm29.263,15.5a17.617,17.617,0,0,0,12.526-4.825V63.7a18,18,0,0,0-12.424-4.826,15.35,15.35,0,1,0-.1,30.7Z"/>
      <path class="a7c23aaa-1253-4520-943b-7d65e1b98466" d="M290.4,136.872h9.549l29.468,71.873H320.8l-9.036-22.589H277.876l-9.138,22.589h-8.214Zm18.584,42.508L294.92,144.264,280.648,179.38Z"/>
      <path class="a7c23aaa-1253-4520-943b-7d65e1b98466" d="M336.3,157.3h7.6v5.648a19.26,19.26,0,0,1,15.094-6.675,18.034,18.034,0,0,1,16.222,9.344,20.141,20.141,0,0,1,17.661-9.344c11.191,0,18.892,8.112,18.892,19.92v32.548h-7.5V177.737c0-9.138-5.134-14.785-13.348-14.785-5.647,0-10.37,2.874-13.656,8.419a23.977,23.977,0,0,1,.513,4.826v32.548h-7.5V177.737c0-9.138-5.134-14.785-13.245-14.785-5.545,0-9.96,2.567-13.143,7.5v38.3h-7.6Z"/>
      <path class="a7c23aaa-1253-4520-943b-7d65e1b98466" d="M448.528,209.566A26.1,26.1,0,0,1,432,203.611v5.134h-7.5V136.872l7.6-1.746v27.62a23.473,23.473,0,0,1,16.531-6.263c14.58,0,25.874,11.6,25.874,26.49C474.505,197.964,463.211,209.566,448.528,209.566ZM432.1,170.344v25.464a20.334,20.334,0,0,0,15.812,7.085c10.884,0,19.1-8.522,19.1-19.817s-8.317-19.919-19.1-19.919A19.938,19.938,0,0,0,432.1,170.344Z"/>
      <path class="a7c23aaa-1253-4520-943b-7d65e1b98466" d="M482.822,194.165c0-9.651,7.907-15.709,20.535-15.709a33.327,33.327,0,0,1,15.094,3.491V175.17c0-8.214-4.722-12.424-13.656-12.424-5.031,0-9.96,1.335-16.12,4.518l-2.875-5.853c7.393-3.593,13.45-5.134,19.714-5.134,13.04,0,20.33,6.367,20.33,17.866v34.6h-7.393v-5.031a24.5,24.5,0,0,1-16.634,5.955C490.523,209.669,482.822,203.406,482.822,194.165Zm20.33,9.549c6.161,0,11.192-1.848,15.3-5.955v-9.652c-4.21-2.875-8.932-4.107-14.888-4.107-8.214,0-13.451,3.9-13.451,9.959C490.112,199.709,495.452,203.714,503.152,203.714Z"/>
      <path class="a7c23aaa-1253-4520-943b-7d65e1b98466" d="M537.961,196.732a24.625,24.625,0,0,0,16.736,6.879c8.214,0,13.964-3.8,13.964-9.24,0-4.415-2.977-6.88-9.549-7.8l-8.932-1.232c-10.269-1.54-15.2-6.058-15.2-13.861,0-8.625,8.009-14.991,19.3-14.991a32.892,32.892,0,0,1,20.228,6.776l-4,5.134c-5.75-3.9-10.987-5.749-16.633-5.749-7.085,0-11.911,3.49-11.911,8.522,0,4.415,2.772,6.571,9.549,7.6L560.447,180c10.268,1.437,15.4,6.058,15.4,13.963,0,8.934-9.037,15.71-20.844,15.71-8.523,0-16.223-2.875-21.665-8.008Z"/>
      <path class="a7c23aaa-1253-4520-943b-7d65e1b98466" d="M584.577,196.732a24.625,24.625,0,0,0,16.736,6.879c8.214,0,13.964-3.8,13.964-9.24,0-4.415-2.977-6.88-9.548-7.8l-8.933-1.232c-10.269-1.54-15.2-6.058-15.2-13.861,0-8.625,8.008-14.991,19.3-14.991a32.89,32.89,0,0,1,20.228,6.776l-4,5.134c-5.75-3.9-10.986-5.749-16.633-5.749-7.085,0-11.911,3.49-11.911,8.522,0,4.415,2.773,6.571,9.549,7.6L607.063,180c10.268,1.437,15.4,6.058,15.4,13.963,0,8.934-9.036,15.71-20.844,15.71-8.522,0-16.223-2.875-21.665-8.008Z"/>
      <path class="a7c23aaa-1253-4520-943b-7d65e1b98466" d="M628.729,194.165c0-9.651,7.906-15.709,20.535-15.709a33.329,33.329,0,0,1,15.093,3.491V175.17c0-8.214-4.723-12.424-13.656-12.424-5.031,0-9.96,1.335-16.12,4.518l-2.875-5.853c7.393-3.593,13.45-5.134,19.714-5.134,13.04,0,20.33,6.367,20.33,17.866v34.6h-7.393v-5.031a24.5,24.5,0,0,1-16.633,5.955C636.429,209.669,628.729,203.406,628.729,194.165Zm20.33,9.549c6.16,0,11.191-1.848,15.3-5.955v-9.652c-4.21-2.875-8.933-4.107-14.888-4.107-8.214,0-13.45,3.9-13.45,9.959C636.019,199.709,641.357,203.714,649.059,203.714Z"/>
      <path class="a7c23aaa-1253-4520-943b-7d65e1b98466" d="M724.629,203.3A23.9,23.9,0,0,1,708,209.566c-14.477,0-25.874-11.6-25.874-26.593,0-14.888,11.294-26.49,25.977-26.49a25.929,25.929,0,0,1,16.428,5.852V136.872l7.6-1.746v73.619h-7.5Zm-15.915-.41a19.939,19.939,0,0,0,15.812-7.188V170.242a20.33,20.33,0,0,0-15.812-7.085c-10.78,0-19.1,8.419-19.1,19.714S697.934,202.893,708.714,202.893Z"/>
      <path class="a7c23aaa-1253-4520-943b-7d65e1b98466" d="M768.987,156.277c14.58,0,26.183,11.705,26.183,26.7,0,15.094-11.6,26.8-26.183,26.8-14.682,0-26.285-11.7-26.285-26.8C742.7,167.982,754.305,156.277,768.987,156.277Zm18.687,26.7c0-11.191-8.214-19.919-18.687-19.919s-18.79,8.728-18.79,19.919S758.411,203,768.987,203C779.46,203,787.674,194.165,787.674,182.973Z"/>
      <path class="a7c23aaa-1253-4520-943b-7d65e1b98466" d="M805.746,157.3h7.6v7.29a16.047,16.047,0,0,1,14.374-8.419,14.019,14.019,0,0,1,4.826.719v6.981a16.7,16.7,0,0,0-5.339-.923c-6.366,0-11.192,3.7-13.861,10.575v35.218h-7.6Z"/>
    </g>
  </g>
</svg>
