<svg id="f545bd49-3462-4826-abdf-73f87db6c010" data-name="Standard" xmlns="http://www.w3.org/2000/svg" viewBox="0 0 232.24 231.21">
  <title>Asset-Red_Hat-Open_Org_Icon-A-Black-RGB</title>
  <g>
    <path d="M48.958,95.92A46.961,46.961,0,1,1,95.919,48.959,47.012,47.012,0,0,1,48.958,95.92Zm0-71.922A24.962,24.962,0,1,0,73.92,48.959,24.987,24.987,0,0,0,48.958,24Z"/>
    <path d="M101.915,154.628a53.8,53.8,0,0,1,53.743-53.743V80.045a74.583,74.583,0,0,0-74.583,74.583Z"/>
    <path d="M190.435,88.75V9.878H105.229l.317,21.886h63V168.548H31.764V106.253H9.878v84.181H90.332A74.52,74.52,0,1,0,190.435,88.75Z"/>
  </g>
</svg>
